<svg width="20" height="20" viewBox="0 0 20 20" fill="none" xmlns="http://www.w3.org/2000/svg">
<path fill-rule="evenodd" clip-rule="evenodd" d="M9.99974 20C15.1135 20 19.259 15.5228 19.259 10C19.259 4.47715 15.1135 0 9.99974 0C4.88599 0 0.740479 4.47715 0.740479 10C0.740479 15.5228 4.88599 20 9.99974 20ZM9.99974 18C5.90874 18 2.59233 14.4183 2.59233 10C2.59233 5.58172 5.90874 2 9.99974 2C14.0907 2 17.4071 5.58172 17.4071 10C17.4071 14.4183 14.0907 18 9.99974 18ZM5.57301 10.3753C5.89246 9.94404 6.47514 9.87412 6.87445 10.2191L8.51327 11.6351L13.0209 6.32428C13.3664 5.91716 13.9521 5.88965 14.3291 6.26285C14.7061 6.63604 14.7315 7.26861 14.386 7.67572L8.70842 14.3649L5.71761 11.7809C5.31829 11.4359 5.25355 10.8066 5.57301 10.3753Z" fill="#3A3A44"/>
<mask id="mask0" mask-type="alpha" maskUnits="userSpaceOnUse" x="0" y="0" width="20" height="20">
<path fill-rule="evenodd" clip-rule="evenodd" d="M9.99974 20C15.1135 20 19.259 15.5228 19.259 10C19.259 4.47715 15.1135 0 9.99974 0C4.88599 0 0.740479 4.47715 0.740479 10C0.740479 15.5228 4.88599 20 9.99974 20ZM9.99974 18C5.90874 18 2.59233 14.4183 2.59233 10C2.59233 5.58172 5.90874 2 9.99974 2C14.0907 2 17.4071 5.58172 17.4071 10C17.4071 14.4183 14.0907 18 9.99974 18ZM5.57301 10.3753C5.89246 9.94404 6.47514 9.87412 6.87445 10.2191L8.51327 11.6351L13.0209 6.32428C13.3664 5.91716 13.9521 5.88965 14.3291 6.26285C14.7061 6.63604 14.7315 7.26861 14.386 7.67572L8.70842 14.3649L5.71761 11.7809C5.31829 11.4359 5.25355 10.8066 5.57301 10.3753Z" fill="white"/>
</mask>
<g mask="url(#mask0)">
<rect x="0.740479" width="18.5185" height="20" fill="url(#paint0_linear)"/>
</g>
<defs>
<linearGradient id="paint0_linear" x1="0.740479" y1="10" x2="19.259" y2="10" gradientUnits="userSpaceOnUse">
<stop stop-color="#EC6F66"/>
<stop offset="1" stop-color="#F3A183"/>
</linearGradient>
</defs>
</svg>
