<svg width="12" height="13" viewBox="0 0 12 13" fill="none" xmlns="http://www.w3.org/2000/svg">
<path fill-rule="evenodd" clip-rule="evenodd" d="M9.02707 5.59604L0.870598 5.6623C0.386933 5.6623 0 6.05981 0 6.55671C0 7.05361 0.386933 7.45112 0.870598 7.45112L9.02062 7.38487L5.96385 10.5319C5.62206 10.883 5.62206 11.4462 5.96385 11.7973C6.30564 12.1485 6.8538 12.1485 7.19559 11.7973L11.742 7.12648C11.9097 6.95423 12 6.72234 12 6.49708C12 6.27182 11.9162 6.03994 11.742 5.86768L7.18914 1.19022C6.84735 0.839085 6.29919 0.839085 5.9574 1.19022C5.62206 1.53474 5.62206 2.10452 5.96385 2.44903L9.02707 5.59604Z" fill="url(#paint0_linear)"/>
<defs>
<linearGradient id="paint0_linear" x1="6" y1="12.0607" x2="6" y2="0.926869" gradientUnits="userSpaceOnUse">
<stop stop-color="#EC6F66"/>
<stop offset="1" stop-color="#F3A183"/>
</linearGradient>
</defs>
</svg>
