<svg width="8" height="17" viewBox="0 0 8 17" fill="none" xmlns="http://www.w3.org/2000/svg">
<path fill-rule="evenodd" clip-rule="evenodd" d="M5.06347 16.8197V8.65888H7.31621L7.61474 5.84663H5.06347L5.0673 4.43907C5.0673 3.70559 5.13699 3.31257 6.19048 3.31257H7.5988V0.5H5.34574C2.63946 0.5 1.68692 1.86425 1.68692 4.15848V5.84695H0V8.6592H1.68692V16.8197H5.06347Z" fill="url(#paint0_linear)"/>
<mask id="mask0" mask-type="alpha" maskUnits="userSpaceOnUse" x="0" y="0" width="8" height="17">
<path fill-rule="evenodd" clip-rule="evenodd" d="M5.06347 16.8197V8.65888H7.31621L7.61474 5.84663H5.06347L5.0673 4.43907C5.0673 3.70559 5.13699 3.31257 6.19048 3.31257H7.5988V0.5H5.34574C2.63946 0.5 1.68692 1.86425 1.68692 4.15848V5.84695H0V8.6592H1.68692V16.8197H5.06347Z" fill="white"/>
</mask>
<g mask="url(#mask0)">
<rect x="-11" y="-6" width="30" height="30" fill="url(#paint1_linear)"/>
</g>
<defs>
<linearGradient id="paint0_linear" x1="0" y1="8.65984" x2="7.61474" y2="8.65984" gradientUnits="userSpaceOnUse">
<stop stop-color="#EC6F66"/>
<stop offset="1" stop-color="#F3A183"/>
</linearGradient>
<linearGradient id="paint1_linear" x1="-11" y1="9" x2="19" y2="9" gradientUnits="userSpaceOnUse">
<stop stop-color="#EC6F66"/>
<stop offset="1" stop-color="#F3A183"/>
</linearGradient>
</defs>
</svg>
