<svg width="18" height="18" viewBox="0 0 18 18" fill="none" xmlns="http://www.w3.org/2000/svg">
  <path fill-rule="evenodd" clip-rule="evenodd" d="M14.8199 13.4056C15.8729 12.051 16.5 10.3487 16.5 8.5C16.5 4.08172 12.9183 0.5 8.5 0.5C4.08172 0.5 0.5 4.08172 0.5 8.5C0.5 12.9183 4.08172 16.5 8.5 16.5C10.3487 16.5 12.051 15.8729 13.4056 14.8199L15.7929 17.2071C16.1834 17.5976 16.8166 17.5976 17.2071 17.2071C17.5976 16.8166 17.5976 16.1834 17.2071 15.7929L14.8199 13.4056ZM8.5 14.5C5.18629 14.5 2.5 11.8137 2.5 8.5C2.5 5.18629 5.18629 2.5 8.5 2.5C11.8137 2.5 14.5 5.18629 14.5 8.5C14.5 11.8137 11.8137 14.5 8.5 14.5Z" fill="black"/>
</svg>
