<svg width="28" height="34" viewBox="0 0 28 34" fill="none" xmlns="http://www.w3.org/2000/svg">
  <path fill-rule="evenodd" clip-rule="evenodd" d="M14 0.333374C21.3638 0.333374 27.3333 6.30291 27.3333 13.6667V20.3334C27.3333 27.6972 21.3638 33.6667 14 33.6667C6.63616 33.6667 0.666626 27.6972 0.666626 20.3334V13.6667C0.666626 6.30291 6.63616 0.333374 14 0.333374ZM14 3.66671C8.47711 3.66671 3.99996 8.14386 3.99996 13.6667V20.3334C3.99996 25.8562 8.47711 30.3334 14 30.3334C19.5228 30.3334 24 25.8562 24 20.3334V13.6667C24 8.14386 19.5228 3.66671 14 3.66671ZM12.3333 13.6667V10.3334C12.3333 9.4129 13.0795 8.66671 14 8.66671C14.9204 8.66671 15.6666 9.4129 15.6666 10.3334V13.6667C15.6666 14.5872 14.9204 15.3334 14 15.3334C13.0795 15.3334 12.3333 14.5872 12.3333 13.6667Z" fill="#F7F7FA"/>
</svg>
