<svg width="20" height="20" viewBox="0 0 20 20" fill="none" xmlns="http://www.w3.org/2000/svg">
<path fill-rule="evenodd" clip-rule="evenodd" d="M9.99974 20C15.1135 20 19.259 15.5228 19.259 10C19.259 4.47715 15.1135 0 9.99974 0C4.88599 0 0.740479 4.47715 0.740479 10C0.740479 15.5228 4.88599 20 9.99974 20ZM9.99974 18C5.90874 18 2.59233 14.4183 2.59233 10C2.59233 5.58172 5.90874 2 9.99974 2C14.0907 2 17.4071 5.58172 17.4071 10C17.4071 14.4183 14.0907 18 9.99974 18ZM12.1228 6.29289L9.99974 8.58579L7.87669 6.29289C7.51509 5.90237 6.92883 5.90237 6.56723 6.29289C6.20563 6.68342 6.20563 7.31658 6.56723 7.70711L8.69028 10L6.56723 12.2929C6.20563 12.6834 6.20563 13.3166 6.56723 13.7071C6.92883 14.0976 7.51509 14.0976 7.87669 13.7071L9.99974 11.4142L12.1228 13.7071C12.4844 14.0976 13.0706 14.0976 13.4322 13.7071C13.7938 13.3166 13.7938 12.6834 13.4322 12.2929L11.3092 10L13.4322 7.70711C13.7938 7.31658 13.7938 6.68342 13.4322 6.29289C13.0706 5.90237 12.4844 5.90237 12.1228 6.29289Z" fill="#3A3A44"/>
<mask id="mask0" mask-type="alpha" maskUnits="userSpaceOnUse" x="0" y="0" width="20" height="20">
<path fill-rule="evenodd" clip-rule="evenodd" d="M9.99974 20C15.1135 20 19.259 15.5228 19.259 10C19.259 4.47715 15.1135 0 9.99974 0C4.88599 0 0.740479 4.47715 0.740479 10C0.740479 15.5228 4.88599 20 9.99974 20ZM9.99974 18C5.90874 18 2.59233 14.4183 2.59233 10C2.59233 5.58172 5.90874 2 9.99974 2C14.0907 2 17.4071 5.58172 17.4071 10C17.4071 14.4183 14.0907 18 9.99974 18ZM12.1228 6.29289L9.99974 8.58579L7.87669 6.29289C7.51509 5.90237 6.92883 5.90237 6.56723 6.29289C6.20563 6.68342 6.20563 7.31658 6.56723 7.70711L8.69028 10L6.56723 12.2929C6.20563 12.6834 6.20563 13.3166 6.56723 13.7071C6.92883 14.0976 7.51509 14.0976 7.87669 13.7071L9.99974 11.4142L12.1228 13.7071C12.4844 14.0976 13.0706 14.0976 13.4322 13.7071C13.7938 13.3166 13.7938 12.6834 13.4322 12.2929L11.3092 10L13.4322 7.70711C13.7938 7.31658 13.7938 6.68342 13.4322 6.29289C13.0706 5.90237 12.4844 5.90237 12.1228 6.29289Z" fill="white"/>
</mask>
<g mask="url(#mask0)">
<rect x="0.740479" width="18.5185" height="20" fill="#9696A0"/>
</g>
</svg>
