<svg width="136" height="28" viewBox="0 0 136 28" fill="none" xmlns="http://www.w3.org/2000/svg">
<path d="M0 9.33545V14.2599C1.70283 14.2588 3.38919 14.5894 4.96257 15.233C6.53596 15.8766 7.96549 16.8204 9.16937 18.0106C10.373 19.2002 11.3275 20.6127 11.9783 22.1672C12.6292 23.7217 12.9636 25.3877 12.9625 27.0699H17.9421C17.9376 22.3684 16.0459 17.8607 12.6822 14.5359C9.3185 11.2111 4.75748 9.34082 0 9.33545H0Z" fill="white"/>
<path d="M24.9029 0.469971H17.0114C21.0035 2.97011 24.3862 6.31253 26.9167 10.2574V2.45867C26.9163 1.93111 26.704 1.42528 26.3264 1.05236C25.9487 0.679448 25.4367 0.469971 24.9029 0.469971V0.469971Z" fill="white"/>
<path d="M4.95833 0.469971H0V4.90377C5.94699 4.90989 11.6487 7.24719 15.8539 11.4028C20.0591 15.5584 22.4244 21.1929 22.4308 27.07H26.9167V22.17C25.9024 16.7845 23.2617 11.8289 19.3421 7.95542C15.4225 4.08196 10.4079 1.47228 4.95833 0.469971V0.469971Z" fill="white"/>
<path d="M39.1219 3.39819H35.9614V19.1412H39.1219V3.39819Z" fill="white"/>
<path d="M50.7429 10.2189C50.2167 9.74619 49.6008 9.38144 48.931 9.14575C47.492 8.6464 45.9237 8.6464 44.4847 9.14575C43.8146 9.38127 43.1984 9.74603 42.6721 10.2189C42.156 10.6891 41.7436 11.2596 41.4609 11.8947C41.1686 12.5874 41.0182 13.3305 41.0182 14.0811C41.0182 14.8317 41.1686 15.5748 41.4609 16.2676C41.7425 16.9044 42.155 17.4765 42.6721 17.9476C43.1975 18.4207 43.8133 18.7853 44.4833 19.02C45.9222 19.5202 47.4907 19.5202 48.9295 19.02C49.5998 18.7853 50.2158 18.4207 50.7415 17.9476C51.2584 17.4763 51.6708 16.9043 51.9527 16.2676C52.2449 15.5748 52.3954 14.8317 52.3954 14.0811C52.3954 13.3305 52.2449 12.5874 51.9527 11.8947C51.6702 11.2598 51.2584 10.6894 50.7429 10.2189ZM48.5725 15.9351C48.0607 16.3907 47.3963 16.6428 46.7075 16.6428C46.0187 16.6428 45.3542 16.3907 44.8424 15.9351C44.4123 15.4103 44.1776 14.7554 44.1776 14.0801C44.1776 13.4047 44.4123 12.7498 44.8424 12.2251C45.3542 11.7695 46.0187 11.5173 46.7075 11.5173C47.3963 11.5173 48.0607 11.7695 48.5725 12.2251C49.0027 12.7498 49.2374 13.4047 49.2374 14.0801C49.2374 14.7554 49.0027 15.4103 48.5725 15.9351V15.9351Z" fill="white"/>
<path d="M62.0896 10.3541H62.05C61.9038 10.1513 61.7341 9.96616 61.5442 9.80248C61.3143 9.60144 61.0596 9.42976 60.7863 9.29148C60.0955 8.94118 59.3286 8.76266 58.5522 8.77138C57.8718 8.75961 57.199 8.91346 56.593 9.21938C56.0283 9.50833 55.5297 9.90884 55.1281 10.3961C54.7186 10.8983 54.4045 11.4696 54.2009 12.0824C53.9845 12.7137 53.8742 13.3758 53.8744 14.0424C53.8664 14.7579 53.9878 15.469 54.2328 16.1424C54.4548 16.7568 54.8009 17.3203 55.25 17.7986C55.6974 18.2666 56.2404 18.6353 56.843 18.8801C57.4982 19.144 58.2004 19.2749 58.9078 19.2651C59.4311 19.2562 59.9484 19.1539 60.435 18.9634C60.9806 18.7589 61.4533 18.4003 61.7943 17.9323H61.8368V18.9123C61.8486 19.2392 61.7941 19.5651 61.6765 19.8708C61.5588 20.1765 61.3804 20.4559 61.1518 20.6924C60.8617 20.946 60.5226 21.1388 60.1549 21.2592C59.7872 21.3795 59.3986 21.4248 59.0126 21.3924C58.4007 21.3991 57.7942 21.2785 57.2326 21.0382C56.6738 20.7914 56.1525 20.4692 55.6835 20.0806L53.9346 22.6601C54.6494 23.2291 55.485 23.6313 56.3791 23.8368C57.2637 24.0378 58.1686 24.139 59.0764 24.1385C61.0711 24.1385 62.5564 23.6422 63.5325 22.6496C64.5086 21.657 64.9969 20.2028 64.9974 18.2872V9.02128H62.0932L62.0896 10.3541ZM61.8998 14.9664C61.7751 15.2627 61.5924 15.5318 61.3622 15.7581C61.1278 15.9889 60.853 16.1758 60.5511 16.3097C60.2377 16.4472 59.8985 16.5183 59.5556 16.5183C59.2126 16.5183 58.8735 16.4472 58.56 16.3097C58.2622 16.1739 57.991 15.9872 57.7589 15.7581C57.5277 15.5298 57.3442 15.2588 57.2191 14.9604C57.0939 14.6621 57.0295 14.3423 57.0295 14.0193C57.0295 13.6963 57.0939 13.3765 57.2191 13.0781C57.3442 12.7798 57.5277 12.5087 57.7589 12.2805C57.9911 12.0514 58.2623 11.8645 58.56 11.7282C58.8736 11.5911 59.2127 11.5203 59.5556 11.5203C59.8985 11.5203 60.2376 11.5911 60.5511 11.7282C60.8529 11.8626 61.1276 12.0497 61.3622 12.2805C61.7099 12.6259 61.9465 13.0651 62.0421 13.5431C62.1378 14.021 62.0883 14.5162 61.8998 14.9664V14.9664Z" fill="white"/>
<path d="M76.8712 10.2189C76.345 9.74619 75.7291 9.38144 75.0593 9.14575C73.6202 8.6464 72.052 8.6464 70.613 9.14575C69.9429 9.38127 69.3267 9.74603 68.8004 10.2189C68.2842 10.6891 67.8719 11.2596 67.5892 11.8947C67.2969 12.5874 67.1465 13.3305 67.1465 14.0811C67.1465 14.8317 67.2969 15.5748 67.5892 16.2676C67.8708 16.9044 68.2833 17.4765 68.8004 17.9476C69.3262 18.4209 69.9425 18.7855 70.613 19.02C72.0519 19.5202 73.6204 19.5202 75.0593 19.02C75.7295 18.7853 76.3455 18.4207 76.8712 17.9476C77.3883 17.4765 77.8007 16.9044 78.0824 16.2676C78.3746 15.5748 78.5251 14.8317 78.5251 14.0811C78.5251 13.3305 78.3746 12.5874 78.0824 11.8947C77.7997 11.2596 77.3873 10.6891 76.8712 10.2189V10.2189ZM74.7008 15.9351C74.189 16.3907 73.5246 16.6428 72.8358 16.6428C72.147 16.6428 71.4825 16.3907 70.9707 15.9351C70.5406 15.4103 70.3059 14.7554 70.3059 14.0801C70.3059 13.4047 70.5406 12.7498 70.9707 12.2251C71.4825 11.7695 72.147 11.5173 72.8358 11.5173C73.5246 11.5173 74.189 11.7695 74.7008 12.2251C75.131 12.7498 75.3657 13.4047 75.3657 14.0801C75.3657 14.7554 75.131 15.4103 74.7008 15.9351Z" fill="white"/>
<path d="M82.7177 9.09106H81.0227V19.141H82.7177V9.09106Z" fill="white"/>
<path d="M81.8706 3.93772C81.7062 3.93464 81.543 3.96548 81.3914 4.02828C81.2398 4.09107 81.1031 4.18445 80.9901 4.30242C80.8178 4.47414 80.7007 4.69242 80.6537 4.92978C80.6067 5.16713 80.6318 5.41292 80.7259 5.63617C80.8201 5.85943 80.979 6.05015 81.1826 6.18431C81.3862 6.31847 81.6255 6.39006 81.8702 6.39006C82.1149 6.39006 82.3542 6.31847 82.5578 6.18431C82.7614 6.05015 82.9203 5.85943 83.0145 5.63617C83.1086 5.41292 83.1337 5.16713 83.0867 4.92978C83.0397 4.69242 82.9226 4.47414 82.7503 4.30242C82.6375 4.1844 82.5009 4.09098 82.3494 4.02818C82.1979 3.96537 82.0348 3.93456 81.8706 3.93772V3.93772Z" fill="white"/>
<path d="M95.256 10.3399C94.7792 9.85883 94.2056 9.48183 93.5723 9.23323C92.8772 8.96248 92.1356 8.82768 91.3885 8.83633C90.6847 8.82834 89.9888 8.98295 89.3563 9.28783C88.7333 9.59401 88.1818 10.0253 87.737 10.5541H87.6917V9.09113H85.9988V24.0375H87.6917V17.3595H87.7349C88.0947 17.972 88.6191 18.474 89.25 18.8099C89.9825 19.2152 90.8114 19.4192 91.6506 19.4007C92.3376 19.405 93.0183 19.2697 93.6502 19.0031C94.2604 18.7474 94.8112 18.371 95.2687 17.8971C95.7334 17.4129 96.0988 16.8443 96.3447 16.2227C96.8661 14.8668 96.8661 13.3689 96.3447 12.0129C96.0966 11.39 95.7267 10.8214 95.256 10.3399V10.3399ZM94.6582 15.5899C94.5002 16.0275 94.253 16.4284 93.932 16.7678C93.6109 17.1072 93.2228 17.378 92.7917 17.5632C91.8385 17.949 90.7699 17.949 89.8167 17.5632C89.385 17.378 88.9963 17.107 88.6749 16.7672C88.3535 16.4274 88.1061 16.026 87.9481 15.5878C87.6154 14.6354 87.6154 13.6002 87.9481 12.6478C88.1061 12.2097 88.3535 11.8082 88.6749 11.4684C88.9963 11.1286 89.385 10.8577 89.8167 10.6724C90.7699 10.2866 91.8385 10.2866 92.7917 10.6724C93.2234 10.8577 93.6121 11.1286 93.9335 11.4684C94.2549 11.8082 94.5023 12.2097 94.6603 12.6478C94.993 13.6002 94.993 14.6354 94.6603 15.5878L94.6582 15.5899Z" fill="white"/>
<path d="M105.274 14.12C104.952 13.882 104.593 13.6971 104.211 13.5726C103.792 13.4328 103.364 13.3215 102.929 13.2394C102.604 13.1844 102.281 13.1129 101.962 13.0252C101.679 12.949 101.402 12.8483 101.137 12.7242C100.924 12.6288 100.731 12.4938 100.57 12.3266C100.433 12.1771 100.359 11.9811 100.364 11.7792C100.36 11.5614 100.425 11.3478 100.549 11.1674C100.67 10.9892 100.83 10.8391 101.015 10.7271C101.214 10.6083 101.431 10.5214 101.657 10.4695C101.889 10.4128 102.127 10.3839 102.365 10.3834C102.82 10.3694 103.269 10.4851 103.658 10.7166C104.01 10.9353 104.304 11.2332 104.517 11.586L105.929 10.6627C105.616 10.0524 105.108 9.56149 104.483 9.26621C103.854 8.97737 103.168 8.83078 102.474 8.83711C102.003 8.836 101.535 8.90105 101.083 9.03031C100.65 9.15239 100.239 9.34139 99.8658 9.59031C99.5086 9.82858 99.2114 10.1444 98.9967 10.5136C98.7743 10.9068 98.6619 11.3513 98.6708 11.8016C98.6531 12.2424 98.7543 12.6799 98.9641 13.0693C99.1554 13.395 99.4225 13.6709 99.7432 13.8743C100.097 14.095 100.481 14.2649 100.884 14.379C101.319 14.5078 101.775 14.6224 102.253 14.7227C102.529 14.7801 102.797 14.8445 103.057 14.9159C103.301 14.9806 103.535 15.0782 103.752 15.2057C103.944 15.318 104.11 15.4679 104.241 15.646C104.372 15.8433 104.436 16.0762 104.426 16.3117C104.434 16.5592 104.366 16.8032 104.231 17.0117C104.096 17.2093 103.917 17.3744 103.709 17.4947C103.484 17.6274 103.238 17.7221 102.981 17.7747C102.72 17.8313 102.454 17.8601 102.188 17.8608C101.66 17.881 101.136 17.7544 100.678 17.4954C100.255 17.2299 99.884 16.893 99.5803 16.5L98.2345 17.5311C98.6511 18.1705 99.2425 18.6802 99.9402 19.0011C100.655 19.2816 101.42 19.4168 102.189 19.3987C102.69 19.3991 103.189 19.3416 103.677 19.2272C104.14 19.1213 104.582 18.936 104.981 18.6798C105.362 18.4298 105.677 18.0939 105.901 17.6998C106.145 17.2525 106.265 16.75 106.25 16.2424C106.264 15.806 106.174 15.3725 105.989 14.9761C105.821 14.6401 105.576 14.3471 105.274 14.12V14.12Z" fill="white"/>
<path d="M117.486 16.7575V9.09106H115.791V13.9911C115.796 14.5193 115.734 15.0462 115.606 15.5591C115.497 15.9987 115.305 16.414 115.039 16.7827C114.787 17.1254 114.45 17.3989 114.061 17.5772C113.613 17.7736 113.127 17.8692 112.638 17.8572C112.307 17.8836 111.974 17.8311 111.668 17.7041C111.361 17.577 111.09 17.3791 110.878 17.1271C110.47 16.5416 110.271 15.8393 110.311 15.13V9.09106H108.616V15.2973C108.611 15.8598 108.687 16.4202 108.844 16.9612C108.98 17.4407 109.222 17.8846 109.552 18.2611C109.883 18.6291 110.295 18.9166 110.756 19.1011C111.307 19.3132 111.894 19.4155 112.484 19.4021C112.881 19.4052 113.277 19.3508 113.658 19.2404C114.002 19.1414 114.33 18.997 114.635 18.8113C114.912 18.6425 115.165 18.4366 115.385 18.1995C115.583 17.9884 115.748 17.7495 115.874 17.4904H115.917C115.917 17.7774 115.925 18.0574 115.939 18.3304C115.954 18.6034 115.961 18.8754 115.961 19.1466H117.569C117.569 18.8166 117.555 18.4515 117.525 18.0511C117.496 17.6507 117.483 17.2195 117.486 16.7575Z" fill="white"/>
<path d="M135.804 11.2927C135.691 10.8065 135.468 10.3518 135.152 9.96274C134.833 9.58633 134.422 9.29711 133.957 9.12274C133.372 8.91418 132.753 8.81588 132.132 8.83294C131.457 8.80381 130.79 8.97997 130.219 9.33764C129.691 9.71232 129.247 10.1915 128.916 10.7446C128.829 10.5724 128.717 10.3755 128.579 10.1538C128.425 9.91449 128.23 9.70363 128.003 9.53084C127.724 9.32108 127.413 9.15576 127.082 9.04084C126.638 8.89317 126.17 8.82398 125.702 8.83644C125.305 8.83321 124.909 8.88769 124.529 8.99814C124.184 9.09715 123.855 9.24148 123.55 9.42724C123.273 9.59621 123.021 9.80208 122.801 10.039C122.603 10.25 122.438 10.489 122.312 10.7481H122.268C122.268 10.4611 122.261 10.1825 122.247 9.90814C122.233 9.63374 122.225 9.36424 122.225 9.09194H120.617C120.617 9.42187 120.632 9.78704 120.66 10.1874C120.689 10.5878 120.704 11.0174 120.704 11.4761V19.1418H122.4V14.246C122.395 13.7175 122.457 13.1905 122.585 12.6773C122.693 12.2375 122.885 11.8222 123.152 11.4537C123.403 11.1109 123.74 10.8374 124.129 10.6592C124.577 10.4627 125.063 10.3671 125.553 10.3792C125.843 10.3548 126.134 10.4066 126.398 10.5296C126.661 10.6525 126.887 10.8422 127.052 11.0792C127.416 11.8158 127.573 12.6351 127.508 13.4522V19.1432H129.2V13.343C129.195 12.9297 129.265 12.5188 129.407 12.1299C129.532 11.7852 129.725 11.468 129.974 11.1961C130.208 10.9417 130.493 10.7371 130.81 10.5948C131.131 10.4513 131.479 10.378 131.831 10.3799C132.25 10.3649 132.667 10.4457 133.048 10.6158C133.349 10.7595 133.61 10.9736 133.808 11.2395C133.999 11.5028 134.133 11.8024 134.2 12.1194C134.273 12.4511 134.309 12.7895 134.308 13.1288V19.1418H136V13.0427C136.006 12.4538 135.941 11.8662 135.804 11.2927Z" fill="white"/>
</svg>
