<svg width="136" height="28" viewBox="0 0 136 28" fill="none" xmlns="http://www.w3.org/2000/svg">
<path d="M0 9.33496V14.2595C1.70283 14.2583 3.38919 14.589 4.96257 15.2325C6.53596 15.8761 7.96549 16.8199 9.16937 18.0101C10.373 19.1998 11.3275 20.6122 11.9783 22.1667C12.6292 23.7212 12.9636 25.3872 12.9625 27.0695H17.9421C17.9376 22.3679 16.0459 17.8602 12.6822 14.5354C9.3185 11.2106 4.75748 9.34034 0 9.33496H0Z" fill="black"/>
<path d="M24.9029 0.469727H17.0114C21.0035 2.96987 24.3862 6.31228 26.9167 10.2571V2.45843C26.9163 1.93086 26.704 1.42503 26.3264 1.05212C25.9487 0.679204 25.4367 0.469726 24.9029 0.469727V0.469727Z" fill="black"/>
<path d="M4.95833 0.469727H0V4.90353C5.94699 4.90964 11.6487 7.24694 15.8539 11.4026C20.0591 15.5582 22.4244 21.1927 22.4308 27.0697H26.9167V22.1697C25.9024 16.7843 23.2617 11.8286 19.3421 7.95518C15.4225 4.08171 10.4079 1.47204 4.95833 0.469727V0.469727Z" fill="black"/>
<path d="M39.1219 3.39746H35.9614V19.1405H39.1219V3.39746Z" fill="black"/>
<path d="M50.7429 10.2191C50.2167 9.74643 49.6008 9.38168 48.931 9.146C47.492 8.64665 45.9237 8.64665 44.4847 9.146C43.8146 9.38151 43.1984 9.74628 42.6721 10.2191C42.156 10.6894 41.7436 11.2599 41.4609 11.8949C41.1686 12.5877 41.0182 13.3308 41.0182 14.0813C41.0182 14.8319 41.1686 15.575 41.4609 16.2678C41.7425 16.9046 42.155 17.4767 42.6721 17.9478C43.1975 18.421 43.8133 18.7856 44.4833 19.0202C45.9222 19.5204 47.4907 19.5204 48.9295 19.0202C49.5998 18.7856 50.2158 18.421 50.7415 17.9478C51.2584 17.4765 51.6708 16.9045 51.9527 16.2678C52.2449 15.575 52.3954 14.8319 52.3954 14.0813C52.3954 13.3308 52.2449 12.5877 51.9527 11.8949C51.6702 11.2601 51.2584 10.6896 50.7429 10.2191ZM48.5725 15.9353C48.0607 16.3909 47.3963 16.643 46.7075 16.643C46.0187 16.643 45.3542 16.3909 44.8424 15.9353C44.4123 15.4105 44.1776 14.7557 44.1776 14.0803C44.1776 13.4049 44.4123 12.7501 44.8424 12.2253C45.3542 11.7697 46.0187 11.5176 46.7075 11.5176C47.3963 11.5176 48.0607 11.7697 48.5725 12.2253C49.0027 12.7501 49.2374 13.4049 49.2374 14.0803C49.2374 14.7557 49.0027 15.4105 48.5725 15.9353V15.9353Z" fill="black"/>
<path d="M62.0896 10.3538H62.05C61.9038 10.1511 61.7341 9.96592 61.5442 9.80224C61.3143 9.60119 61.0596 9.42952 60.7863 9.29124C60.0955 8.94094 59.3286 8.76242 58.5522 8.77114C57.8718 8.75936 57.199 8.91322 56.593 9.21914C56.0283 9.50809 55.5297 9.9086 55.1281 10.3958C54.7186 10.898 54.4045 11.4693 54.2009 12.0821C53.9845 12.7135 53.8742 13.3756 53.8744 14.0421C53.8664 14.7576 53.9878 15.4688 54.2328 16.1421C54.4548 16.7566 54.8009 17.3201 55.25 17.7983C55.6974 18.2664 56.2404 18.635 56.843 18.8798C57.4982 19.1437 58.2004 19.2747 58.9078 19.2648C59.4311 19.2559 59.9484 19.1537 60.435 18.9631C60.9806 18.7586 61.4533 18.4 61.7943 17.932H61.8368V18.912C61.8486 19.2389 61.7941 19.5648 61.6765 19.8705C61.5588 20.1763 61.3804 20.4556 61.1518 20.6921C60.8617 20.9458 60.5226 21.1386 60.1549 21.2589C59.7872 21.3792 59.3986 21.4246 59.0126 21.3921C58.4007 21.3989 57.7942 21.2782 57.2326 21.0379C56.6738 20.7912 56.1525 20.4689 55.6835 20.0803L53.9346 22.6598C54.6494 23.2288 55.485 23.6311 56.3791 23.8365C57.2637 24.0376 58.1686 24.1388 59.0764 24.1382C61.0711 24.1382 62.5564 23.6419 63.5325 22.6493C64.5086 21.6567 64.9969 20.2026 64.9974 18.2869V9.02104H62.0932L62.0896 10.3538ZM61.8998 14.9661C61.7751 15.2625 61.5924 15.5315 61.3622 15.7578C61.1278 15.9886 60.853 16.1755 60.5511 16.3094C60.2377 16.447 59.8985 16.5181 59.5556 16.5181C59.2126 16.5181 58.8735 16.447 58.56 16.3094C58.2622 16.1736 57.991 15.9869 57.7589 15.7578C57.5277 15.5296 57.3442 15.2585 57.2191 14.9602C57.0939 14.6618 57.0295 14.342 57.0295 14.019C57.0295 13.6961 57.0939 13.3763 57.2191 13.0779C57.3442 12.7795 57.5277 12.5085 57.7589 12.2802C57.9911 12.0512 58.2623 11.8642 58.56 11.7279C58.8736 11.5908 59.2127 11.52 59.5556 11.52C59.8985 11.52 60.2376 11.5908 60.5511 11.7279C60.8529 11.8623 61.1276 12.0494 61.3622 12.2802C61.7099 12.6256 61.9465 13.0649 62.0421 13.5428C62.1378 14.0207 62.0883 14.516 61.8998 14.9661V14.9661Z" fill="black"/>
<path d="M76.8712 10.2191C76.345 9.74643 75.7291 9.38168 75.0593 9.146C73.6202 8.64665 72.052 8.64665 70.613 9.146C69.9429 9.38151 69.3267 9.74628 68.8004 10.2191C68.2842 10.6894 67.8719 11.2599 67.5892 11.8949C67.2969 12.5877 67.1465 13.3308 67.1465 14.0813C67.1465 14.8319 67.2969 15.575 67.5892 16.2678C67.8708 16.9046 68.2833 17.4767 68.8004 17.9478C69.3262 18.4211 69.9425 18.7857 70.613 19.0202C72.0519 19.5204 73.6204 19.5204 75.0593 19.0202C75.7295 18.7856 76.3455 18.421 76.8712 17.9478C77.3883 17.4767 77.8007 16.9046 78.0824 16.2678C78.3746 15.575 78.5251 14.8319 78.5251 14.0813C78.5251 13.3308 78.3746 12.5877 78.0824 11.8949C77.7997 11.2599 77.3873 10.6894 76.8712 10.2191V10.2191ZM74.7008 15.9353C74.189 16.3909 73.5246 16.643 72.8358 16.643C72.147 16.643 71.4825 16.3909 70.9707 15.9353C70.5406 15.4105 70.3059 14.7557 70.3059 14.0803C70.3059 13.4049 70.5406 12.7501 70.9707 12.2253C71.4825 11.7697 72.147 11.5176 72.8358 11.5176C73.5246 11.5176 74.189 11.7697 74.7008 12.2253C75.131 12.7501 75.3657 13.4049 75.3657 14.0803C75.3657 14.7557 75.131 15.4105 74.7008 15.9353Z" fill="black"/>
<path d="M82.7177 9.09082H81.0227V19.1407H82.7177V9.09082Z" fill="black"/>
<path d="M81.8706 3.93772C81.7062 3.93464 81.543 3.96548 81.3914 4.02828C81.2398 4.09107 81.1031 4.18445 80.9901 4.30242C80.8178 4.47414 80.7007 4.69242 80.6537 4.92978C80.6067 5.16713 80.6318 5.41292 80.7259 5.63617C80.8201 5.85943 80.979 6.05015 81.1826 6.18431C81.3862 6.31847 81.6255 6.39006 81.8702 6.39006C82.1149 6.39006 82.3542 6.31847 82.5578 6.18431C82.7614 6.05015 82.9203 5.85943 83.0145 5.63617C83.1086 5.41292 83.1337 5.16713 83.0867 4.92978C83.0397 4.69242 82.9226 4.47414 82.7503 4.30242C82.6375 4.1844 82.5009 4.09098 82.3494 4.02818C82.1979 3.96537 82.0348 3.93456 81.8706 3.93772V3.93772Z" fill="black"/>
<path d="M95.256 10.3399C94.7792 9.85883 94.2056 9.48183 93.5723 9.23323C92.8772 8.96248 92.1356 8.82768 91.3885 8.83633C90.6847 8.82834 89.9888 8.98295 89.3563 9.28783C88.7333 9.59401 88.1818 10.0253 87.737 10.5541H87.6917V9.09113H85.9988V24.0375H87.6917V17.3595H87.7349C88.0947 17.972 88.6191 18.474 89.25 18.8099C89.9825 19.2152 90.8114 19.4192 91.6506 19.4007C92.3376 19.405 93.0183 19.2697 93.6502 19.0031C94.2604 18.7474 94.8112 18.371 95.2687 17.8971C95.7334 17.4129 96.0988 16.8443 96.3447 16.2227C96.8661 14.8668 96.8661 13.3689 96.3447 12.0129C96.0966 11.39 95.7267 10.8214 95.256 10.3399V10.3399ZM94.6582 15.5899C94.5002 16.0275 94.253 16.4284 93.932 16.7678C93.6109 17.1072 93.2228 17.378 92.7917 17.5632C91.8385 17.949 90.7699 17.949 89.8167 17.5632C89.385 17.378 88.9963 17.107 88.6749 16.7672C88.3535 16.4274 88.1061 16.026 87.9481 15.5878C87.6154 14.6354 87.6154 13.6002 87.9481 12.6478C88.1061 12.2097 88.3535 11.8082 88.6749 11.4684C88.9963 11.1286 89.385 10.8577 89.8167 10.6724C90.7699 10.2866 91.8385 10.2866 92.7917 10.6724C93.2234 10.8577 93.6121 11.1286 93.9335 11.4684C94.2549 11.8082 94.5023 12.2097 94.6603 12.6478C94.993 13.6002 94.993 14.6354 94.6603 15.5878L94.6582 15.5899Z" fill="black"/>
<path d="M105.274 14.12C104.952 13.882 104.593 13.6971 104.211 13.5726C103.792 13.4328 103.364 13.3215 102.929 13.2394C102.604 13.1844 102.281 13.1129 101.962 13.0252C101.679 12.949 101.402 12.8483 101.137 12.7242C100.924 12.6288 100.731 12.4938 100.57 12.3266C100.433 12.1771 100.359 11.9811 100.364 11.7792C100.36 11.5614 100.425 11.3478 100.549 11.1674C100.67 10.9892 100.83 10.8391 101.015 10.7271C101.214 10.6083 101.431 10.5214 101.657 10.4695C101.889 10.4128 102.127 10.3839 102.365 10.3834C102.82 10.3694 103.269 10.4851 103.658 10.7166C104.01 10.9353 104.304 11.2332 104.517 11.586L105.929 10.6627C105.616 10.0524 105.108 9.56149 104.483 9.26621C103.854 8.97737 103.168 8.83078 102.474 8.83711C102.003 8.836 101.535 8.90105 101.083 9.03031C100.65 9.15239 100.239 9.34139 99.8658 9.59031C99.5086 9.82858 99.2114 10.1444 98.9967 10.5136C98.7743 10.9068 98.6619 11.3513 98.6708 11.8016C98.6531 12.2424 98.7543 12.6799 98.9641 13.0693C99.1554 13.395 99.4225 13.6709 99.7432 13.8743C100.097 14.095 100.481 14.2649 100.884 14.379C101.319 14.5078 101.775 14.6224 102.253 14.7227C102.529 14.7801 102.797 14.8445 103.057 14.9159C103.301 14.9806 103.535 15.0782 103.752 15.2057C103.944 15.318 104.11 15.4679 104.241 15.646C104.372 15.8433 104.436 16.0762 104.426 16.3117C104.434 16.5592 104.366 16.8032 104.231 17.0117C104.096 17.2093 103.917 17.3744 103.709 17.4947C103.484 17.6274 103.238 17.7221 102.981 17.7747C102.72 17.8313 102.454 17.8601 102.188 17.8608C101.66 17.881 101.136 17.7544 100.678 17.4954C100.255 17.2299 99.884 16.893 99.5803 16.5L98.2345 17.5311C98.6511 18.1705 99.2425 18.6802 99.9402 19.0011C100.655 19.2816 101.42 19.4168 102.189 19.3987C102.69 19.3991 103.189 19.3416 103.677 19.2272C104.14 19.1213 104.582 18.936 104.981 18.6798C105.362 18.4298 105.677 18.0939 105.901 17.6998C106.145 17.2525 106.265 16.75 106.25 16.2424C106.264 15.806 106.174 15.3725 105.989 14.9761C105.821 14.6401 105.576 14.3471 105.274 14.12V14.12Z" fill="black"/>
<path d="M117.486 16.7572V9.09082H115.791V13.9908C115.796 14.5191 115.734 15.0459 115.606 15.5588C115.497 15.9985 115.305 16.4137 115.039 16.7824C114.787 17.1252 114.45 17.3986 114.061 17.5769C113.613 17.7733 113.127 17.869 112.638 17.8569C112.307 17.8834 111.974 17.8309 111.668 17.7038C111.361 17.5768 111.09 17.3789 110.878 17.1268C110.47 16.5414 110.271 15.839 110.311 15.1297V9.09082H108.616V15.297C108.611 15.8596 108.687 16.42 108.844 16.9609C108.98 17.4405 109.222 17.8844 109.552 18.2608C109.883 18.6288 110.295 18.9163 110.756 19.1008C111.307 19.313 111.894 19.4153 112.484 19.4018C112.881 19.405 113.277 19.3505 113.658 19.2401C114.002 19.1411 114.33 18.9968 114.635 18.811C114.912 18.6423 115.165 18.4364 115.385 18.1992C115.583 17.9882 115.748 17.7492 115.874 17.4901H115.917C115.917 17.7771 115.925 18.0571 115.939 18.3301C115.954 18.6031 115.961 18.8752 115.961 19.1463H117.569C117.569 18.8164 117.555 18.4512 117.525 18.0508C117.496 17.6504 117.483 17.2192 117.486 16.7572Z" fill="black"/>
<path d="M135.804 11.292C135.691 10.8057 135.468 10.351 135.152 9.96201C134.833 9.5856 134.422 9.29638 133.957 9.12201C133.372 8.91344 132.753 8.81515 132.132 8.83221C131.457 8.80308 130.79 8.97924 130.219 9.33691C129.691 9.71159 129.247 10.1907 128.916 10.7439C128.829 10.5717 128.717 10.3748 128.579 10.1531C128.425 9.91376 128.23 9.7029 128.003 9.53011C127.724 9.32035 127.413 9.15502 127.082 9.04011C126.638 8.89244 126.17 8.82324 125.702 8.83571C125.305 8.83248 124.909 8.88696 124.529 8.99741C124.184 9.09641 123.855 9.24074 123.55 9.42651C123.273 9.59548 123.021 9.80135 122.801 10.0383C122.603 10.2493 122.438 10.4883 122.312 10.7474H122.268C122.268 10.4604 122.261 10.1818 122.247 9.90741C122.233 9.63301 122.225 9.36351 122.225 9.09121H120.617C120.617 9.42114 120.632 9.78631 120.66 10.1867C120.689 10.5871 120.704 11.0167 120.704 11.4754V19.1411H122.4V14.2453C122.395 13.7168 122.457 13.1897 122.585 12.6766C122.693 12.2368 122.885 11.8214 123.152 11.453C123.403 11.1101 123.74 10.8366 124.129 10.6585C124.577 10.462 125.063 10.3663 125.553 10.3785C125.843 10.354 126.134 10.4059 126.398 10.5288C126.661 10.6518 126.887 10.8414 127.052 11.0785C127.416 11.815 127.573 12.6344 127.508 13.4515V19.1425H129.2V13.3423C129.195 12.929 129.265 12.5181 129.407 12.1292C129.532 11.7845 129.725 11.4672 129.974 11.1954C130.208 10.9409 130.493 10.7363 130.81 10.5941C131.131 10.4506 131.479 10.3773 131.831 10.3792C132.25 10.3642 132.667 10.4449 133.048 10.6151C133.349 10.7588 133.61 10.9729 133.808 11.2388C133.999 11.502 134.133 11.8017 134.2 12.1187C134.273 12.4504 134.309 12.7888 134.308 13.1281V19.1411H136V13.042C136.006 12.453 135.941 11.8655 135.804 11.292Z" fill="black"/>
</svg>
