<svg width="32" height="30" viewBox="0 0 32 30" fill="none" xmlns="http://www.w3.org/2000/svg">
<path d="M26.4283 0.808333L23.5717 2.525L28.3333 10.4617V21.6667H26.6667V18.3333C26.6667 17.4493 26.3155 16.6014 25.6904 15.9763C25.0652 15.3512 24.2174 15 23.3333 15H21.6667V0H1.66667V26.6667H0V30H23.3333V26.6667H21.6667V18.3333H23.3333V21.6667C23.3333 22.5507 23.6845 23.3986 24.3096 24.0237C24.9348 24.6488 25.7826 25 26.6667 25H28.3333C29.2174 25 30.0652 24.6488 30.6904 24.0237C31.3155 23.3986 31.6667 22.5507 31.6667 21.6667V9.53833L26.4283 0.808333ZM18.3333 26.6667H5V10H18.3333V26.6667ZM18.3333 6.66667H5V3.33333H18.3333V6.66667Z" fill="white"/>
<path d="M11.6667 25.0002C12.9719 24.9356 14.2065 24.3881 15.1306 23.4641C16.0546 22.54 16.6021 21.3054 16.6667 20.0002C16.6667 17.8736 14 14.9702 12.845 13.8219L11.6667 12.6436L10.4884 13.8219C9.33335 14.9702 6.66669 17.8736 6.66669 20.0002C6.73126 21.3054 7.27877 22.54 8.20283 23.4641C9.12688 24.3881 10.3615 24.9356 11.6667 25.0002V25.0002ZM11.6667 17.4669C12.3716 18.203 12.9364 19.0615 13.3334 20.0002C13.2757 20.4219 13.0816 20.8132 12.7806 21.1142C12.4797 21.4151 12.0884 21.6093 11.6667 21.6669C11.2493 21.6102 10.8614 21.4201 10.561 21.1248C10.2606 20.8295 10.0638 20.4449 10 20.0286C10.3913 19.0784 10.9565 18.2096 11.6667 17.4669V17.4669Z" fill="white"/>
</svg>
