<svg width="14" height="20" viewBox="0 0 14 20" fill="none" xmlns="http://www.w3.org/2000/svg">
<path d="M7 0C5.14413 0.00211736 3.36489 0.740295 2.05259 2.05259C0.740295 3.36489 0.00211736 5.14413 0 7C0 12.353 6.036 18.45 6.293 18.707L7 19.414L7.707 18.707C7.964 18.45 14 12.353 14 7C13.9979 5.14413 13.2597 3.36489 11.9474 2.05259C10.6351 0.740295 8.85587 0.00211736 7 0ZM7 16.533C5.471 14.825 2 10.553 2 7C2 5.67392 2.52678 4.40215 3.46447 3.46447C4.40215 2.52678 5.67392 2 7 2C8.32608 2 9.59785 2.52678 10.5355 3.46447C11.4732 4.40215 12 5.67392 12 7C12 10.546 8.527 14.823 7 16.533Z" fill="#1C3A27"/>
<path d="M7 4C6.40666 4 5.82664 4.17595 5.33329 4.50559C4.83994 4.83524 4.45543 5.30377 4.22836 5.85195C4.0013 6.40013 3.94189 7.00333 4.05765 7.58527C4.1734 8.16721 4.45912 8.70176 4.87868 9.12132C5.29824 9.54088 5.83279 9.8266 6.41473 9.94236C6.99667 10.0581 7.59987 9.9987 8.14805 9.77164C8.69623 9.54458 9.16477 9.16006 9.49441 8.66671C9.82405 8.17336 10 7.59334 10 7C10 6.20435 9.68393 5.44129 9.12132 4.87868C8.55871 4.31607 7.79565 4 7 4ZM7 8C6.80222 8 6.60888 7.94135 6.44443 7.83147C6.27998 7.72159 6.15181 7.56541 6.07612 7.38268C6.00043 7.19996 5.98063 6.99889 6.01922 6.80491C6.0578 6.61093 6.15304 6.43275 6.2929 6.29289C6.43275 6.15304 6.61093 6.0578 6.80491 6.01921C6.99889 5.98063 7.19996 6.00043 7.38269 6.07612C7.56541 6.15181 7.72159 6.27998 7.83147 6.44443C7.94135 6.60888 8 6.80222 8 7C8 7.26522 7.89464 7.51957 7.70711 7.70711C7.51957 7.89464 7.26522 8 7 8Z" fill="#1C3A27"/>
</svg>
