<svg width="22" height="22" viewBox="0 0 22 22" fill="none" xmlns="http://www.w3.org/2000/svg">
<path d="M21.191 14.489L21.153 13.662L14.67 12.736L13.355 15.31C11.9666 14.5283 10.6974 13.5517 9.58597 12.41C8.43156 11.3004 7.44789 10.0259 6.66697 8.62801L9.46697 7.22801L6.66697 0.708008L5.90697 0.818008C4.61983 0.995313 3.42735 1.59296 2.51497 2.51801C-0.65803 5.68701 0.58497 11.9 5.34297 16.657C8.32497 19.638 11.876 21.239 14.894 21.238C15.7375 21.2674 16.5784 21.1274 17.367 20.8263C18.1555 20.5252 18.8757 20.0691 19.485 19.485C20.1073 18.8208 20.5813 18.0319 20.8754 17.1705C21.1696 16.3092 21.2771 15.3951 21.191 14.489ZM18.071 18.071C15.771 20.371 10.59 19.071 6.75697 15.243C2.92397 11.415 1.62897 6.22901 3.92897 3.92901C4.35771 3.49451 4.88245 3.16672 5.46097 2.97201L6.88097 6.28501L5.77397 6.83801C5.53417 6.95811 5.32083 7.12498 5.14652 7.3288C4.97221 7.53262 4.84045 7.76926 4.759 8.02478C4.67756 8.28031 4.64807 8.54955 4.67228 8.81664C4.69649 9.08374 4.77391 9.34329 4.89997 9.58001C5.77532 11.1482 6.87604 12.5794 8.16697 13.828C9.41589 15.1045 10.8414 16.1952 12.4 17.067C12.6402 17.1974 12.9041 17.2785 13.1761 17.3054C13.4481 17.3324 13.7228 17.3047 13.984 17.224C14.2394 17.1445 14.476 17.014 14.6795 16.8404C14.883 16.6668 15.0492 16.4537 15.168 16.214L15.815 14.92L19.182 15.401C19.1436 16.3954 18.7493 17.3429 18.071 18.071Z" fill="#1C3A27"/>
</svg>
