<svg width="32" height="35" viewBox="0 0 32 35" fill="none" xmlns="http://www.w3.org/2000/svg">
<path d="M24.3333 15L23.3333 14.25L22.3333 15C21.5817 15.5633 15 20.6667 15 26.3333C15 28.5435 15.878 30.6631 17.4408 32.2259C19.0036 33.7887 21.1232 34.6667 23.3333 34.6667C25.5435 34.6667 27.6631 33.7887 29.2259 32.2259C30.7887 30.6631 31.6667 28.5435 31.6667 26.3333C31.6667 20.6667 25.085 15.5633 24.3333 15ZM23.3333 31.3333C22.0073 31.3333 20.7355 30.8066 19.7978 29.8689C18.8601 28.9312 18.3333 27.6594 18.3333 26.3333C18.3333 23.4867 21.365 20.2167 23.3333 18.4867C25.3017 20.2167 28.3333 23.4867 28.3333 26.3333C28.3333 27.6594 27.8066 28.9312 26.8689 29.8689C25.9312 30.8066 24.6594 31.3333 23.3333 31.3333Z" fill="#1C3A27"/>
<path d="M7.59167 9.94683L6.66667 9.3335L5.74167 9.95016C5.50833 10.1035 0 13.8418 0 19.6668C0 21.4349 0.702379 23.1306 1.95262 24.3809C3.20286 25.6311 4.89856 26.3335 6.66667 26.3335C8.43478 26.3335 10.1305 25.6311 11.3807 24.3809C12.631 23.1306 13.3333 21.4349 13.3333 19.6668C13.3333 13.8418 7.83333 10.1035 7.59167 9.94683ZM6.66667 23.0002C5.78261 23.0002 4.93477 22.649 4.30964 22.0239C3.68452 21.3987 3.33333 20.5509 3.33333 19.6668C3.43825 18.4601 3.78792 17.2874 4.36102 16.2203C4.93412 15.1532 5.71862 14.2141 6.66667 13.4602C7.61457 14.2142 8.39897 15.1534 8.97205 16.2205C9.54514 17.2875 9.89489 18.4602 10 19.6668C10 20.5509 9.64881 21.3987 9.02369 22.0239C8.39857 22.649 7.55072 23.0002 6.66667 23.0002Z" fill="#1C3A27"/>
<path d="M23.3334 8.00022C23.3334 5.87355 20.6667 2.97022 19.5117 1.82189L18.3334 0.643555L17.155 1.82189C16 2.97022 13.3334 5.87355 13.3334 8.00022C13.3334 9.3263 13.8602 10.5981 14.7978 11.5358C15.7355 12.4734 17.0073 13.0002 18.3334 13.0002C19.6595 13.0002 20.9312 12.4734 21.8689 11.5358C22.8066 10.5981 23.3334 9.3263 23.3334 8.00022V8.00022ZM16.6667 8.02855C17.0566 7.07764 17.622 6.20862 18.3334 5.46689C19.0407 6.20804 19.6057 7.07299 20 8.01855C20.0014 8.46058 19.827 8.88503 19.5154 9.19853C19.2038 9.51203 18.7804 9.6889 18.3384 9.69022C17.8963 9.69155 17.4719 9.51722 17.1584 9.2056C16.8449 8.89398 16.668 8.47058 16.6667 8.02855Z" fill="black"/>
</svg>
