<svg width="29" height="32" viewBox="0 0 29 32" fill="none" xmlns="http://www.w3.org/2000/svg">
<path d="M10 8.66667H8.33333V2H5V8.66667H3.33333V2H0V13.6667C0 14.5507 0.351189 15.3986 0.976311 16.0237C1.60143 16.6488 2.44928 17 3.33333 17H5V32H8.33333V17H10C10.8841 17 11.7319 16.6488 12.357 16.0237C12.9821 15.3986 13.3333 14.5507 13.3333 13.6667V2H10V8.66667ZM3.33333 13.6667V12H10V13.6667H3.33333Z" fill="#1C3A27"/>
<path d="M25.9667 0.981792C25.2829 0.769986 24.5489 0.785426 23.8747 1.0258C23.2004 1.26617 22.6222 1.71854 22.2267 2.31513L20.4133 5.04346C19.084 7.04017 18.2519 9.32608 17.9867 11.7101L16.8833 21.6351C16.832 22.1007 16.8794 22.5719 17.0225 23.0179C17.1655 23.4639 17.4009 23.8748 17.7134 24.2238C18.0258 24.5727 18.4083 24.8519 18.8359 25.0431C19.2635 25.2343 19.7266 25.3332 20.195 25.3335H25V32.0001H28.3333V4.16679C28.3354 3.45159 28.1061 2.7549 27.6795 2.18083C27.2529 1.60676 26.6521 1.18613 25.9667 0.981792V0.981792ZM25 22.0001H20.195L21.2983 12.0751C21.5056 10.2215 22.1531 8.44436 23.1867 6.89179L25 4.16679V22.0001Z" fill="#1C3A27"/>
</svg>
