<svg width="38" height="34" viewBox="0 0 38 34" fill="none" xmlns="http://www.w3.org/2000/svg">
<mask id="path-1-inside-1" fill="white">
<path d="M32.0433 8.67519C32.236 8.13779 32.3341 7.57108 32.3333 7.00019C32.3333 5.6741 31.8066 4.40234 30.8689 3.46465C29.9312 2.52697 28.6594 2.00019 27.3333 2.00019C26.2443 2.00164 25.1863 2.36253 24.3233 3.02685C23.7095 2.19175 22.9078 1.51278 21.9831 1.04481C21.0583 0.576846 20.0364 0.333008 19 0.333008C17.9636 0.333008 16.9417 0.576846 16.0169 1.04481C15.0922 1.51278 14.2905 2.19175 13.6767 3.02685C12.8138 2.36253 11.7557 2.00164 10.6667 2.00019C9.34059 2.00019 8.06882 2.52697 7.13114 3.46465C6.19346 4.40234 5.66667 5.6741 5.66667 7.00019C5.66686 7.56828 5.76496 8.13209 5.95667 8.66685C4.63059 8.6284 3.34355 9.1183 2.37867 10.0288C1.4138 10.9393 0.850131 12.1958 0.811675 13.5219C0.773218 14.8479 1.26312 16.135 2.17361 17.0999C3.0841 18.0647 4.34059 18.6284 5.66667 18.6669C6.38789 18.6632 7.09956 18.5016 7.75167 18.1935C8.34167 18.6319 9.08501 19.1302 9.85167 19.6552C11.3489 20.5563 12.7403 21.6224 14 22.8335C13.6149 25.6684 13.0662 28.4787 12.3567 31.2502C12.3389 31.3221 12.331 31.3961 12.3333 31.4702C12.375 32.8202 14.6117 33.5052 18.9767 33.5102H19.0233C23.3883 33.5102 25.625 32.8202 25.6667 31.4702C25.669 31.3961 25.6611 31.3221 25.6433 31.2502C24.9466 28.5087 24.3936 25.7327 23.9867 22.9335C25.1183 21.7716 26.3995 20.7655 27.7967 19.9419C28.7267 19.3119 29.6017 18.7169 30.2583 18.1985C30.9079 18.5032 31.6159 18.663 32.3333 18.6669C33.002 18.6667 33.6639 18.5323 34.2798 18.2718C34.8956 18.0113 35.453 17.6299 35.9189 17.1502C36.3847 16.6705 36.7496 16.1022 36.992 15.479C37.2343 14.8557 37.3492 14.1902 37.3298 13.5218C37.3104 12.8534 37.1571 12.1956 36.879 11.5875C36.6009 10.9794 36.2037 10.4332 35.7108 9.98133C35.2179 9.52944 34.6393 9.18101 34.0094 8.95666C33.3795 8.73231 32.7109 8.6366 32.0433 8.67519V8.67519ZM26.8617 18.5619C23.7133 20.6952 22.3333 21.7435 22.3333 22.8335C22.687 25.6602 23.218 28.4618 23.9233 31.2219C22.3456 31.7789 20.6668 31.9914 19 31.8452C17.3332 31.9914 15.6544 31.7789 14.0767 31.2219C14.782 28.4618 15.3131 25.6602 15.6667 22.8335C15.6667 21.6935 14.1783 20.5685 10.785 18.2735C10.215 17.8885 9.67501 17.5202 9.20001 17.1835C9.81376 16.5707 10.2582 15.8093 10.49 14.9735C10.6267 15.0285 10.77 15.0585 10.91 15.1002C13.1383 18.0902 14.85 19.6002 16.0067 19.6002C16.1294 19.601 16.2514 19.5824 16.3683 19.5452C16.8017 19.4035 17.3217 18.9935 17.3333 17.8352C17.3567 15.6152 17.35 14.1685 17.3417 13.4119C18.4279 13.7043 19.5721 13.7043 20.6583 13.4119C20.6583 14.1602 20.6433 15.6152 20.6667 17.8352C20.6783 18.9935 21.1983 19.4035 21.6317 19.5452C21.7486 19.5824 21.8706 19.601 21.9933 19.6002C23.15 19.6002 24.8617 18.0835 27.09 15.1002C27.2283 15.0585 27.3717 15.0302 27.5067 14.9752C27.7403 15.8204 28.1927 16.589 28.8183 17.2035C28.2617 17.6135 27.5767 18.0769 26.8617 18.5619V18.5619ZM15.68 14.0002C15.68 14.8185 15.68 16.0702 15.6667 17.7919C14.7215 17.0408 13.8699 16.1791 13.13 15.2252C14.0774 15.062 14.9605 14.6378 15.68 14.0002V14.0002ZM22.3333 17.7969C22.315 16.0735 22.3167 14.8219 22.32 14.0035C23.0398 14.6409 23.9227 15.0656 24.87 15.2302C24.1296 16.1836 23.278 17.0453 22.3333 17.7969V17.7969ZM32.3333 17.0002C31.8939 17.0002 31.4588 16.9133 31.0531 16.7446C30.6474 16.5758 30.279 16.3285 29.9692 16.0168C29.6594 15.7052 29.4143 15.3353 29.248 14.9286C29.0816 14.5219 28.9974 14.0863 29 13.6469C29 13.4921 28.9569 13.3404 28.8755 13.2087C28.7942 13.0771 28.6778 12.9707 28.5394 12.9015C28.4009 12.8323 28.246 12.803 28.0918 12.8169C27.9377 12.8308 27.7905 12.8873 27.6667 12.9802C27.2651 13.2686 26.8052 13.4656 26.3194 13.5575C25.8335 13.6493 25.3335 13.6336 24.8543 13.5117C24.3751 13.3897 23.9285 13.1643 23.5457 12.8514C23.1628 12.5385 22.8532 12.1455 22.6383 11.7002C22.5907 11.5949 22.5216 11.5006 22.4355 11.4234C22.3494 11.3462 22.2482 11.2878 22.1383 11.2519C22.0287 11.2157 21.9126 11.203 21.7977 11.2148C21.6828 11.2266 21.5717 11.2625 21.4717 11.3202C20.7259 11.7619 19.8751 11.995 19.0083 11.995C18.1416 11.995 17.2908 11.7619 16.545 11.3202C16.4445 11.2636 16.3333 11.2285 16.2186 11.2172C16.1038 11.2058 15.9879 11.2184 15.8783 11.2541C15.7686 11.2898 15.6675 11.3479 15.5815 11.4247C15.4954 11.5015 15.4263 11.5953 15.3783 11.7002C15.1641 12.1482 14.8539 12.5436 14.4699 12.8585C14.0858 13.1734 13.6373 13.4 13.1559 13.5222C12.6746 13.6445 12.1723 13.6595 11.6845 13.5661C11.1967 13.4727 10.7355 13.2733 10.3333 12.9819C10.2088 12.89 10.0611 12.8346 9.90685 12.822C9.7526 12.8093 9.59787 12.8399 9.46001 12.9102C9.32109 12.9817 9.20462 13.0902 9.12345 13.2237C9.04228 13.3573 8.99956 13.5106 9.00001 13.6669C9.00001 14.3261 8.80451 14.9706 8.43824 15.5188C8.07197 16.0669 7.55137 16.4942 6.94229 16.7465C6.3332 16.9987 5.66298 17.0648 5.01637 16.9361C4.36977 16.8075 3.77583 16.4901 3.30965 16.0239C2.84348 15.5577 2.52601 14.9638 2.39739 14.3172C2.26877 13.6706 2.33478 13.0003 2.58708 12.3912C2.83937 11.7822 3.26661 11.2616 3.81477 10.8953C4.36294 10.529 5.0074 10.3335 5.66667 10.3335C6.39052 10.3357 7.09346 10.5765 7.66667 11.0185C7.79221 11.1094 7.9406 11.1635 8.09517 11.1747C8.24974 11.1858 8.40436 11.1537 8.54167 11.0819C8.68058 11.0083 8.79672 10.8981 8.87751 10.7633C8.95829 10.6284 9.00066 10.474 9.00001 10.3169C9.00001 10.1875 8.96989 10.0599 8.91203 9.94418C8.85417 9.82846 8.77017 9.72781 8.66668 9.65019C8.28995 9.37011 7.97691 9.01332 7.7482 8.60337C7.51949 8.19341 7.38032 7.73962 7.33987 7.27194C7.29942 6.80425 7.35861 6.3333 7.51353 5.89017C7.66846 5.44704 7.9156 5.0418 8.23864 4.7012C8.56168 4.36059 8.95328 4.09236 9.38759 3.91422C9.82191 3.73607 10.2891 3.65205 10.7582 3.6677C11.2274 3.68336 11.6879 3.79833 12.1094 4.00504C12.5309 4.21174 12.9037 4.50547 13.2033 4.86685C13.2915 4.97197 13.4042 5.05371 13.5315 5.10482C13.6588 5.15592 13.7967 5.17481 13.9331 5.1598C14.0694 5.1448 14.2 5.09637 14.3131 5.01881C14.4263 4.94125 14.5185 4.83696 14.5817 4.71519C14.9958 3.89958 15.6276 3.21457 16.4072 2.73608C17.1868 2.25758 18.0836 2.0043 18.9983 2.0043C19.9131 2.0043 20.8099 2.25758 21.5895 2.73608C22.369 3.21457 23.0009 3.89958 23.415 4.71519C23.4781 4.83699 23.5703 4.94134 23.6834 5.01897C23.7965 5.0966 23.927 5.1451 24.0633 5.16019C24.1998 5.17519 24.3378 5.15626 24.4651 5.10509C24.5925 5.05392 24.7052 4.97208 24.7933 4.86685C25.0943 4.51019 25.4672 4.22104 25.8875 4.01827C26.3079 3.8155 26.7663 3.70368 27.2328 3.69011C27.6993 3.67654 28.1634 3.76153 28.5948 3.93952C29.0263 4.11751 29.4153 4.3845 29.7365 4.72306C30.0577 5.06162 30.3039 5.46413 30.459 5.90431C30.6141 6.34448 30.6746 6.81242 30.6366 7.27757C30.5985 7.74271 30.4628 8.1946 30.2382 8.60372C30.0136 9.01285 29.7053 9.37 29.3333 9.65185C29.2292 9.73673 29.1452 9.84374 29.0876 9.9651C29.0299 10.0865 29 10.2192 29 10.3535C29 10.5083 29.0431 10.66 29.1245 10.7916C29.2058 10.9233 29.3222 11.0297 29.4607 11.0989C29.5991 11.1681 29.754 11.1974 29.9082 11.1835C30.0623 11.1696 30.2095 11.113 30.3333 11.0202C30.9063 10.5776 31.6093 10.3362 32.3333 10.3335C33.2174 10.3335 34.0652 10.6847 34.6904 11.3098C35.3155 11.935 35.6667 12.7828 35.6667 13.6669C35.6667 14.5509 35.3155 15.3988 34.6904 16.0239C34.0652 16.649 33.2174 17.0002 32.3333 17.0002Z"/>
</mask>
<path d="M32.0433 8.67519C32.236 8.13779 32.3341 7.57108 32.3333 7.00019C32.3333 5.6741 31.8066 4.40234 30.8689 3.46465C29.9312 2.52697 28.6594 2.00019 27.3333 2.00019C26.2443 2.00164 25.1863 2.36253 24.3233 3.02685C23.7095 2.19175 22.9078 1.51278 21.9831 1.04481C21.0583 0.576846 20.0364 0.333008 19 0.333008C17.9636 0.333008 16.9417 0.576846 16.0169 1.04481C15.0922 1.51278 14.2905 2.19175 13.6767 3.02685C12.8138 2.36253 11.7557 2.00164 10.6667 2.00019C9.34059 2.00019 8.06882 2.52697 7.13114 3.46465C6.19346 4.40234 5.66667 5.6741 5.66667 7.00019C5.66686 7.56828 5.76496 8.13209 5.95667 8.66685C4.63059 8.6284 3.34355 9.1183 2.37867 10.0288C1.4138 10.9393 0.850131 12.1958 0.811675 13.5219C0.773218 14.8479 1.26312 16.135 2.17361 17.0999C3.0841 18.0647 4.34059 18.6284 5.66667 18.6669C6.38789 18.6632 7.09956 18.5016 7.75167 18.1935C8.34167 18.6319 9.08501 19.1302 9.85167 19.6552C11.3489 20.5563 12.7403 21.6224 14 22.8335C13.6149 25.6684 13.0662 28.4787 12.3567 31.2502C12.3389 31.3221 12.331 31.3961 12.3333 31.4702C12.375 32.8202 14.6117 33.5052 18.9767 33.5102H19.0233C23.3883 33.5102 25.625 32.8202 25.6667 31.4702C25.669 31.3961 25.6611 31.3221 25.6433 31.2502C24.9466 28.5087 24.3936 25.7327 23.9867 22.9335C25.1183 21.7716 26.3995 20.7655 27.7967 19.9419C28.7267 19.3119 29.6017 18.7169 30.2583 18.1985C30.9079 18.5032 31.6159 18.663 32.3333 18.6669C33.002 18.6667 33.6639 18.5323 34.2798 18.2718C34.8956 18.0113 35.453 17.6299 35.9189 17.1502C36.3847 16.6705 36.7496 16.1022 36.992 15.479C37.2343 14.8557 37.3492 14.1902 37.3298 13.5218C37.3104 12.8534 37.1571 12.1956 36.879 11.5875C36.6009 10.9794 36.2037 10.4332 35.7108 9.98133C35.2179 9.52944 34.6393 9.18101 34.0094 8.95666C33.3795 8.73231 32.7109 8.6366 32.0433 8.67519V8.67519ZM26.8617 18.5619C23.7133 20.6952 22.3333 21.7435 22.3333 22.8335C22.687 25.6602 23.218 28.4618 23.9233 31.2219C22.3456 31.7789 20.6668 31.9914 19 31.8452C17.3332 31.9914 15.6544 31.7789 14.0767 31.2219C14.782 28.4618 15.3131 25.6602 15.6667 22.8335C15.6667 21.6935 14.1783 20.5685 10.785 18.2735C10.215 17.8885 9.67501 17.5202 9.20001 17.1835C9.81376 16.5707 10.2582 15.8093 10.49 14.9735C10.6267 15.0285 10.77 15.0585 10.91 15.1002C13.1383 18.0902 14.85 19.6002 16.0067 19.6002C16.1294 19.601 16.2514 19.5824 16.3683 19.5452C16.8017 19.4035 17.3217 18.9935 17.3333 17.8352C17.3567 15.6152 17.35 14.1685 17.3417 13.4119C18.4279 13.7043 19.5721 13.7043 20.6583 13.4119C20.6583 14.1602 20.6433 15.6152 20.6667 17.8352C20.6783 18.9935 21.1983 19.4035 21.6317 19.5452C21.7486 19.5824 21.8706 19.601 21.9933 19.6002C23.15 19.6002 24.8617 18.0835 27.09 15.1002C27.2283 15.0585 27.3717 15.0302 27.5067 14.9752C27.7403 15.8204 28.1927 16.589 28.8183 17.2035C28.2617 17.6135 27.5767 18.0769 26.8617 18.5619V18.5619ZM15.68 14.0002C15.68 14.8185 15.68 16.0702 15.6667 17.7919C14.7215 17.0408 13.8699 16.1791 13.13 15.2252C14.0774 15.062 14.9605 14.6378 15.68 14.0002V14.0002ZM22.3333 17.7969C22.315 16.0735 22.3167 14.8219 22.32 14.0035C23.0398 14.6409 23.9227 15.0656 24.87 15.2302C24.1296 16.1836 23.278 17.0453 22.3333 17.7969V17.7969ZM32.3333 17.0002C31.8939 17.0002 31.4588 16.9133 31.0531 16.7446C30.6474 16.5758 30.279 16.3285 29.9692 16.0168C29.6594 15.7052 29.4143 15.3353 29.248 14.9286C29.0816 14.5219 28.9974 14.0863 29 13.6469C29 13.4921 28.9569 13.3404 28.8755 13.2087C28.7942 13.0771 28.6778 12.9707 28.5394 12.9015C28.4009 12.8323 28.246 12.803 28.0918 12.8169C27.9377 12.8308 27.7905 12.8873 27.6667 12.9802C27.2651 13.2686 26.8052 13.4656 26.3194 13.5575C25.8335 13.6493 25.3335 13.6336 24.8543 13.5117C24.3751 13.3897 23.9285 13.1643 23.5457 12.8514C23.1628 12.5385 22.8532 12.1455 22.6383 11.7002C22.5907 11.5949 22.5216 11.5006 22.4355 11.4234C22.3494 11.3462 22.2482 11.2878 22.1383 11.2519C22.0287 11.2157 21.9126 11.203 21.7977 11.2148C21.6828 11.2266 21.5717 11.2625 21.4717 11.3202C20.7259 11.7619 19.8751 11.995 19.0083 11.995C18.1416 11.995 17.2908 11.7619 16.545 11.3202C16.4445 11.2636 16.3333 11.2285 16.2186 11.2172C16.1038 11.2058 15.9879 11.2184 15.8783 11.2541C15.7686 11.2898 15.6675 11.3479 15.5815 11.4247C15.4954 11.5015 15.4263 11.5953 15.3783 11.7002C15.1641 12.1482 14.8539 12.5436 14.4699 12.8585C14.0858 13.1734 13.6373 13.4 13.1559 13.5222C12.6746 13.6445 12.1723 13.6595 11.6845 13.5661C11.1967 13.4727 10.7355 13.2733 10.3333 12.9819C10.2088 12.89 10.0611 12.8346 9.90685 12.822C9.7526 12.8093 9.59787 12.8399 9.46001 12.9102C9.32109 12.9817 9.20462 13.0902 9.12345 13.2237C9.04228 13.3573 8.99956 13.5106 9.00001 13.6669C9.00001 14.3261 8.80451 14.9706 8.43824 15.5188C8.07197 16.0669 7.55137 16.4942 6.94229 16.7465C6.3332 16.9987 5.66298 17.0648 5.01637 16.9361C4.36977 16.8075 3.77583 16.4901 3.30965 16.0239C2.84348 15.5577 2.52601 14.9638 2.39739 14.3172C2.26877 13.6706 2.33478 13.0003 2.58708 12.3912C2.83937 11.7822 3.26661 11.2616 3.81477 10.8953C4.36294 10.529 5.0074 10.3335 5.66667 10.3335C6.39052 10.3357 7.09346 10.5765 7.66667 11.0185C7.79221 11.1094 7.9406 11.1635 8.09517 11.1747C8.24974 11.1858 8.40436 11.1537 8.54167 11.0819C8.68058 11.0083 8.79672 10.8981 8.87751 10.7633C8.95829 10.6284 9.00066 10.474 9.00001 10.3169C9.00001 10.1875 8.96989 10.0599 8.91203 9.94418C8.85417 9.82846 8.77017 9.72781 8.66668 9.65019C8.28995 9.37011 7.97691 9.01332 7.7482 8.60337C7.51949 8.19341 7.38032 7.73962 7.33987 7.27194C7.29942 6.80425 7.35861 6.3333 7.51353 5.89017C7.66846 5.44704 7.9156 5.0418 8.23864 4.7012C8.56168 4.36059 8.95328 4.09236 9.38759 3.91422C9.82191 3.73607 10.2891 3.65205 10.7582 3.6677C11.2274 3.68336 11.6879 3.79833 12.1094 4.00504C12.5309 4.21174 12.9037 4.50547 13.2033 4.86685C13.2915 4.97197 13.4042 5.05371 13.5315 5.10482C13.6588 5.15592 13.7967 5.17481 13.9331 5.1598C14.0694 5.1448 14.2 5.09637 14.3131 5.01881C14.4263 4.94125 14.5185 4.83696 14.5817 4.71519C14.9958 3.89958 15.6276 3.21457 16.4072 2.73608C17.1868 2.25758 18.0836 2.0043 18.9983 2.0043C19.9131 2.0043 20.8099 2.25758 21.5895 2.73608C22.369 3.21457 23.0009 3.89958 23.415 4.71519C23.4781 4.83699 23.5703 4.94134 23.6834 5.01897C23.7965 5.0966 23.927 5.1451 24.0633 5.16019C24.1998 5.17519 24.3378 5.15626 24.4651 5.10509C24.5925 5.05392 24.7052 4.97208 24.7933 4.86685C25.0943 4.51019 25.4672 4.22104 25.8875 4.01827C26.3079 3.8155 26.7663 3.70368 27.2328 3.69011C27.6993 3.67654 28.1634 3.76153 28.5948 3.93952C29.0263 4.11751 29.4153 4.3845 29.7365 4.72306C30.0577 5.06162 30.3039 5.46413 30.459 5.90431C30.6141 6.34448 30.6746 6.81242 30.6366 7.27757C30.5985 7.74271 30.4628 8.1946 30.2382 8.60372C30.0136 9.01285 29.7053 9.37 29.3333 9.65185C29.2292 9.73673 29.1452 9.84374 29.0876 9.9651C29.0299 10.0865 29 10.2192 29 10.3535C29 10.5083 29.0431 10.66 29.1245 10.7916C29.2058 10.9233 29.3222 11.0297 29.4607 11.0989C29.5991 11.1681 29.754 11.1974 29.9082 11.1835C30.0623 11.1696 30.2095 11.113 30.3333 11.0202C30.9063 10.5776 31.6093 10.3362 32.3333 10.3335C33.2174 10.3335 34.0652 10.6847 34.6904 11.3098C35.3155 11.935 35.6667 12.7828 35.6667 13.6669C35.6667 14.5509 35.3155 15.3988 34.6904 16.0239C34.0652 16.649 33.2174 17.0002 32.3333 17.0002Z" fill="#1C3A27" stroke="#1C3A27" stroke-width="4" mask="url(#path-1-inside-1)"/>
</svg>
